<svg xmlns="http://www.w3.org/2000/svg" xmlns:xlink="http://www.w3.org/1999/xlink" width="21" height="14" xml:space="preserve"><switch><g><path fill="#009B3A" d="M0 0h21v14H0V0z"/><path fill="#FEDF00" d="m2.149 7 8.3 5.3 8.3-5.3-8.299-5.3L2.149 7z"/><circle fill="#002776" cx="10.45" cy="7" r="3.5"/><defs><circle id="a" cx="10.45" cy="7" r="3.5"/></defs><clipPath id="b"><use xlink:href="#a" overflow="visible"/></clipPath><path clip-path="url(#b)" fill="#FFF" d="M-.051 14a8.5 8.5 0 1 1 16.999 0h-.499a8 8 0 1 0-16 0h-.5z"/><path fill="#009B3A" d="M245.858-1505.205c.081-.02.128-.11.106-.199-.022-.09-.106-.145-.186-.125-.081.02-.128.109-.105.199.022.089.105.145.185.125m-.015-.06c.047-.012.074-.067.061-.123-.015-.056-.064-.093-.111-.081-.047.012-.075.067-.06.123.013.056.063.092.11.08M324.567-1490.325l.061-.008-.016-.123.132-.019a.106.106 0 0 0 .089-.12.104.104 0 0 0-.119-.088l-.187.027.04.331zm.036-.192.127-.018a.041.041 0 0 0 .035-.047.042.042 0 0 0-.047-.037l-.127.018.012.084zM428.019-1464.073c-.004-.047-.011-.152-.083-.147l-.089.007c.104-.008.111.096.115.144M402.541-1471.328l.158-.006a.142.142 0 0 0 .137-.148v-.048a.143.143 0 0 0-.149-.138l-.157.006.011.334zm.06-.065.09-.004a.09.09 0 0 0 .088-.093l-.001-.029a.09.09 0 0 0-.093-.087l-.09.003.006.21zM479.417-1448.235l.298.022.004-.062-.241-.017.005-.085.19.013.003-.057-.19-.013.005-.065.229.015.004-.062-.286-.02-.021.331zM554.974-1421.105l.056.01.04-.225.026.236.051.009.106-.214-.04.225.056.01.057-.329-.082-.014-.105.213-.027-.236-.082-.014-.056.33zM671.414-1370.074l.235.083.02-.053-.182-.066.027-.07.148.052.02-.055-.149-.052.018-.049.176.062.02-.053-.23-.082-.103.283zM783.143-1309.49l.054.03.06-.109.118.065c.05.027.114.01.142-.042a.104.104 0 0 0-.042-.142l-.166-.092-.166.29zm.144-.133.112.063a.043.043 0 0 0 .059-.017.044.044 0 0 0-.017-.058l-.113-.062-.041.074zM850.96-1266.483l.051.036.071-.101.11.076a.101.101 0 0 0 .145-.026.103.103 0 0 0-.025-.145l-.156-.11-.196.27zm.157-.116.107.074a.04.04 0 0 0 .059-.01.04.04 0 0 0-.011-.06l-.105-.073-.05.069zM431.008-1463.669c.014-.045.045-.146-.023-.167l-.086-.027c.1.032.068.131.054.177M916.52-1219.85c.063.055.164.043.224-.027.06-.07.057-.17-.005-.223-.063-.055-.162-.042-.223.027-.058.07-.056.17.004.224m.042-.048c.037.034.098.023.136-.02s.038-.106.001-.136c-.036-.033-.098-.024-.135.02-.037.043-.037.105-.002.136"/><defs><path id="c" d="m431.534-1463.473.134-.305.274.119-.133.306-.275-.12zm.228-.146-.022.053.137.059.023-.052-.138-.06z"/></defs><clipPath id="d"><use xlink:href="#c" overflow="visible"/></clipPath><g transform="rotate(23.5)" clip-path="url(#d)"><path fill="#009B3A" d="M431.672-1463.413c.076.033.169-.009.204-.093.037-.084.005-.179-.071-.212-.076-.034-.167.008-.203.092s-.006.18.07.213m.025-.057c.045.02.1-.007.123-.061.022-.052.005-.111-.039-.131-.045-.02-.1.008-.123.061s-.007.112.039.131"/></g><path fill="#009B3A" d="m431.761-1463.557.115.05-.019.043-.115-.05.019-.043z"/><path fill="#009B3A" d="m431.832-1463.525.044.019-.066.153-.044-.019.066-.153zM619.464 353.164l.037.05.1-.074.08.107c.034.046.1.055.146.02a.106.106 0 0 0 .02-.147l-.114-.152-.27.196zm.185-.063.078.103c.013.019.04.023.06.009a.043.043 0 0 0 .008-.061l-.078-.102-.068.051zM12.175 6.825c.021-.043.068-.136.004-.168l-.081-.041c.095.046.048.14.026.183M676.724 409.45l.154.257.052-.033-.125-.207.075-.045.097.164.05-.03-.099-.162.057-.036.118.196.053-.033-.147-.245-.285.173zM731.047 468.7c-.031.013-.031.049-.01.093.02.043.043.056.06.048.063-.029-.07-.213.04-.26.093-.043.137.064.156.103.017.038.034.12-.04.155l-.03-.067c.033-.016.03-.051.014-.085-.016-.034-.034-.056-.064-.04-.051.023.076.207-.03.256-.08.037-.131-.032-.158-.092-.024-.05-.044-.146.032-.18l.03.068zM782.03 530.713c-.033.011-.039.047-.023.091.016.045.039.062.058.055.064-.023-.048-.218.064-.258.098-.03.13.08.145.12.014.041.022.124-.057.148l-.023-.068c.034-.012.035-.049.023-.083-.012-.034-.025-.057-.058-.046-.053.016.053.214-.056.252-.085.028-.127-.048-.149-.107-.017-.053-.028-.15.05-.178l.025.074zM829.565 595.42c.018.08.106.129.196.109.09-.02.148-.103.129-.184-.019-.082-.107-.13-.197-.11-.09.021-.146.105-.128.185m.062-.013c.011.047.064.076.122.063.055-.013.091-.064.082-.11-.012-.049-.067-.077-.122-.063-.057.013-.094.062-.082.11"/><path fill="#FFF" d="m427.592-1463.779-.047.142.072.024M-427.592-1463.779l-.046.142.072.024"/><path fill="#FFF" d="M427.735-1463.675h-.15v.074M1524.215-45.5l-.121-.09.044-.06"/><path fill="#FFF" d="m427.449-1463.675.122.088.043-.061M-1259.949-858.829l.047-.142.07.023"/><path fill="#FFF" d="m427.68-1463.507-.046-.143-.071.023M514.227 1435.386h.15l.002.076"/><path fill="#FFF" d="m427.503-1463.507.122-.089-.044-.061M13466.344-46100.47l1.481-4.505 2.236.724M427.902-1462.307l-.046.142.071.024M-427.902-1462.307l-.046.142.072.024"/><path fill="#FFF" d="M428.044-1462.203h-.15v.075M1522.91-44.752l-.12-.087.044-.061"/><path fill="#FFF" d="m427.759-1462.203.121.088.044-.061M-1258.453-858.669l.046-.142.072.023"/><path fill="#FFF" d="m427.99-1462.036-.047-.143-.071.023M513.112 1434.378h.15v.075"/><path fill="#FFF" d="m427.813-1462.036.122-.088-.044-.061M13476.11-46054.134l1.448-4.505 2.269.725M427.474-1461.968l-.039.119.059.02M-427.474-1461.968l-.039.119.06.02"/><path fill="#FFF" d="M427.592-1461.882h-.125v.063M1522.466-45.082l-.101-.075.036-.05"/><path fill="#FFF" d="m427.354-1461.882.102.073.037-.05M-1258.273-858.184l.039-.12.06.02"/><path fill="#FFF" d="m427.546-1461.741-.039-.119-.06.02M513.298 1433.879h.125v.064"/><path fill="#FFF" d="m427.399-1461.741.101-.074-.037-.052M11219.224-38370.701l1.023-3.124 1.576.525M428.245-1462.443l-.022.068.034.011M-428.245-1462.443l-.021.068.035.011"/><path fill="#FFF" d="M428.313-1462.395h-.072v.037M1523.176-44.555l-.059-.042.022-.029"/><g fill="#FFF"><path d="m-1205.976 931.427-.022-.069-.034.011"/><path d="m-1205.976 931.427-.058-.042.022-.03"/></g></g></switch></svg>