<svg xmlns="http://www.w3.org/2000/svg" width="21" height="14"><switch><g><path fill="#EE1C25" d="M0 0h21v14H0z"/><path fill="#0B4EA2" d="M0 0h21v9.333H0z"/><path fill="#FFF" d="M0 0h21v4.667H0z"/><path fill="#FFF" d="M9.182 3.29H3.416l-.02.188c-.004.041-.105 1.026-.105 3.189 0 1.016.344 1.914 1.021 2.666.475.526 1.095.971 1.896 1.356l.091.044.091-.044c.801-.386 1.421-.83 1.896-1.356a3.869 3.869 0 0 0 1.021-2.666c0-2.164-.101-3.148-.105-3.189l-.02-.188z"/><path fill="#EE1C25" d="M6.298 10.5C5.147 9.945 3.5 8.845 3.5 6.667S3.604 3.5 3.604 3.5h5.388s.104.99.104 3.167S7.45 9.945 6.298 10.5z"/><path fill="#FFF" d="M6.545 6.097c.312.005.92.017 1.462-.164 0 0-.015.194-.015.419 0 .226.015.42.015.42-.497-.167-1.11-.17-1.462-.166V7.81h-.492V6.606c-.352-.004-.965-.001-1.462.166 0 0 .014-.194.014-.42 0-.226-.014-.419-.014-.419.542.181 1.15.169 1.461.164v-.756a3.495 3.495 0 0 0-1.156.166s.015-.194.015-.419c0-.226-.015-.419-.015-.419.462.154.871.168 1.155.166-.014-.479-.154-1.082-.154-1.082s.287.022.401.022.402-.022.402-.022-.139.603-.154 1.081c.284.003.693-.011 1.155-.166 0 0-.015.194-.015.42 0 .226.015.419.015.419a3.489 3.489 0 0 0-1.156-.166v.756z"/><path fill="#0B4EA2" d="M6.298 7.679c-.58 0-.891.805-.891.805s-.172-.382-.645-.382c-.32 0-.556.285-.706.549.583.926 1.512 1.498 2.242 1.85.73-.352 1.66-.924 2.243-1.85-.15-.264-.386-.549-.706-.549-.473 0-.646.382-.646.382s-.311-.805-.891-.805z"/></g></switch></svg>