<svg xmlns="http://www.w3.org/2000/svg" width="36" height="36"><switch><g><g fill="#C12A83"><path d="M27.229 13.575H8.77a2.442 2.442 0 0 1-2.438-2.438V2.771A2.44 2.44 0 0 1 8.77.333h18.458a2.441 2.441 0 0 1 2.439 2.438v8.365a2.44 2.44 0 0 1-2.438 2.439zM8.769 2.528a.243.243 0 0 0-.243.243v8.365c0 .133.108.243.243.243h18.459a.242.242 0 0 0 .242-.243V2.771a.244.244 0 0 0-.242-.243H8.769z"/><path d="M13.699 9.86a1.098 1.098 0 0 1-1.098-1.098V5.226a1.098 1.098 0 1 1 2.196 0v3.537c0 .607-.492 1.097-1.098 1.097zM17.81 9.86a1.098 1.098 0 0 1-1.098-1.098V5.226a1.098 1.098 0 1 1 2.195 0v3.537A1.097 1.097 0 0 1 17.81 9.86zM21.92 9.86a1.1 1.1 0 0 1-1.098-1.098V5.226a1.098 1.098 0 1 1 2.196 0v3.537c0 .607-.491 1.097-1.098 1.097z"/><g><path d="M27.229 24.62H8.77a2.442 2.442 0 0 1-2.438-2.438v-8.366a2.44 2.44 0 0 1 2.438-2.438h18.458a2.441 2.441 0 0 1 2.439 2.438v8.366a2.44 2.44 0 0 1-2.438 2.438zM8.77 13.573a.243.243 0 0 0-.243.243v8.366c0 .133.109.242.243.242h18.458a.243.243 0 0 0 .244-.242v-8.366a.243.243 0 0 0-.244-.243H8.77z"/><path d="M13.699 20.907a1.097 1.097 0 0 1-1.098-1.098v-3.537a1.098 1.098 0 1 1 2.196 0v3.537c0 .608-.492 1.098-1.098 1.098zM17.81 20.907a1.097 1.097 0 0 1-1.098-1.098v-3.537a1.098 1.098 0 1 1 2.195 0v3.537a1.098 1.098 0 0 1-1.097 1.098zM21.92 20.907a1.099 1.099 0 0 1-1.098-1.098v-3.537a1.098 1.098 0 1 1 2.196 0v3.537c0 .608-.491 1.098-1.098 1.098z"/></g><g><path d="M27.229 35.667H8.77a2.441 2.441 0 0 1-2.438-2.438v-8.367a2.44 2.44 0 0 1 2.438-2.438h18.458a2.44 2.44 0 0 1 2.439 2.438v8.367a2.44 2.44 0 0 1-2.438 2.438zM8.77 24.62a.243.243 0 0 0-.243.243v8.367c0 .133.109.243.243.243h18.458a.244.244 0 0 0 .244-.243v-8.367a.243.243 0 0 0-.244-.243H8.77z"/><path d="M13.699 31.952a1.097 1.097 0 0 1-1.098-1.098v-3.536a1.099 1.099 0 1 1 2.196 0v3.536c0 .608-.492 1.098-1.098 1.098zM17.81 31.952a1.097 1.097 0 0 1-1.098-1.098v-3.536a1.099 1.099 0 1 1 2.195 0v3.536a1.098 1.098 0 0 1-1.097 1.098zM21.92 31.952a1.099 1.099 0 0 1-1.098-1.098v-3.536a1.099 1.099 0 1 1 2.196 0v3.536c0 .608-.491 1.098-1.098 1.098z"/></g></g></g></switch></svg>