<svg xmlns="http://www.w3.org/2000/svg" width="36" height="36"><switch><g><g fill="#C12A83"><path d="M28.249 31.796H8.033a3.242 3.242 0 0 1-3.237-3.238V7.901a3.241 3.241 0 0 1 3.237-3.238h20.216a3.242 3.242 0 0 1 3.238 3.238v20.656a3.242 3.242 0 0 1-3.238 3.239zM8.033 6.794a1.11 1.11 0 0 0-1.109 1.109v20.654a1.11 1.11 0 0 0 1.109 1.109h20.216a1.11 1.11 0 0 0 1.109-1.109V7.901a1.11 1.11 0 0 0-1.109-1.108l-20.216.001z"/><path d="M23.8 27.266H12.483a3.242 3.242 0 0 1-3.238-3.237V12.431a3.242 3.242 0 0 1 3.238-3.238H23.8a3.241 3.241 0 0 1 3.237 3.238v11.597a3.241 3.241 0 0 1-3.237 3.238zM12.483 11.324a1.11 1.11 0 0 0-1.109 1.109V24.03a1.11 1.11 0 0 0 1.109 1.108H23.8a1.11 1.11 0 0 0 1.108-1.108V12.433a1.11 1.11 0 0 0-1.108-1.109H12.483zM13.145 6.245a1.064 1.064 0 0 1-1.064-1.064v-4.11a1.064 1.064 0 0 1 2.128 0V5.18c0 .589-.477 1.065-1.064 1.065zM17.921 6.245a1.064 1.064 0 0 1-1.064-1.064v-4.11a1.064 1.064 0 0 1 2.128 0V5.18c0 .589-.477 1.065-1.064 1.065zM22.697 6.245a1.064 1.064 0 0 1-1.064-1.064v-4.11a1.064 1.064 0 0 1 2.128 0V5.18a1.063 1.063 0 0 1-1.064 1.065zM34.86 24.071h-4.109a1.065 1.065 0 0 1 0-2.128h4.109a1.064 1.064 0 1 1 0 2.128zM34.86 19.295h-4.109a1.065 1.065 0 0 1 0-2.129h4.109a1.064 1.064 0 1 1 0 2.129zM34.86 14.519h-4.109a1.065 1.065 0 0 1 0-2.128h4.109a1.064 1.064 0 1 1 0 2.128z"/><g><path d="M5.249 24.071H1.14a1.064 1.064 0 0 1 0-2.128h4.109a1.064 1.064 0 0 1 0 2.128zM5.249 19.295H1.14a1.064 1.064 0 0 1 0-2.129h4.109a1.064 1.064 0 0 1 0 2.129zM5.249 14.519H1.14a1.064 1.064 0 0 1 0-2.128h4.109a1.064 1.064 0 0 1 0 2.128z"/></g><g><path d="M13.364 35.993a1.065 1.065 0 0 1-1.064-1.064V30.82a1.064 1.064 0 1 1 2.128 0v4.109a1.062 1.062 0 0 1-1.064 1.064zM18.141 35.993a1.065 1.065 0 0 1-1.064-1.064V30.82a1.064 1.064 0 0 1 2.128 0v4.109c0 .589-.477 1.064-1.064 1.064zM22.917 35.993a1.064 1.064 0 0 1-1.064-1.064V30.82a1.064 1.064 0 0 1 2.128 0v4.109c0 .589-.477 1.064-1.064 1.064z"/></g></g></g></switch></svg>