<svg xmlns="http://www.w3.org/2000/svg" width="36" height="36"><switch><g><g fill="#C12A83"><path d="M27.667 27.541H3.193a3.162 3.162 0 0 1-3.159-3.159V11.617a3.162 3.162 0 0 1 3.159-3.158h24.474a3.162 3.162 0 0 1 3.159 3.158v12.765a3.162 3.162 0 0 1-3.159 3.159zM3.193 11.35a.27.27 0 0 0-.27.271v12.764c0 .149.121.271.27.271h24.474a.271.271 0 0 0 .271-.271V11.62a.271.271 0 0 0-.271-.271H3.193z"/><path d="M4.683 12.787h16.623v10.426H4.683zM32.807 23.174h-4.869V12.822h4.869a3.16 3.16 0 0 1 3.159 3.159v4.037a3.161 3.161 0 0 1-3.159 3.159v-.003zm-1.981-2.889h1.98a.271.271 0 0 0 .271-.271v-4.036a.271.271 0 0 0-.271-.27h-1.98v4.577z"/></g></g></switch></svg>