<svg xmlns="http://www.w3.org/2000/svg" width="36" height="36"><switch><g><g fill="#C12A83"><path d="M30.929 26.945H5.092a2.8 2.8 0 0 1-2.798-2.798V8.531a2.8 2.8 0 0 1 2.798-2.797h25.837a2.8 2.8 0 0 1 2.797 2.797v15.616a2.8 2.8 0 0 1-2.797 2.798zM5.092 7.437c-.602 0-1.094.492-1.094 1.095v15.616c0 .604.492 1.096 1.094 1.096h25.837c.604 0 1.095-.492 1.095-1.096V8.531c0-.603-.491-1.095-1.095-1.095H5.092zM35.069 30.266H.952a.85.85 0 1 1 0-1.703H35.07a.85.85 0 0 1 .851.852.854.854 0 0 1-.852.851z"/><path d="M28.394 11.858L8.057 22.464l-.765-1.468 20.336-10.605z"/><path d="M5.903 22.653c.994-.124 2.304-.138 3.235.087l-1.232-1.133-.222-1.657c-.35.892-1.108 1.96-1.781 2.703zM28.345 12.812l1.772-2.786-3.297-.14z"/></g></g></switch></svg>