<svg xmlns="http://www.w3.org/2000/svg" width="36" height="36"><switch><g><g fill="#C12A83"><path d="M32.764 28.836H6.255a2.959 2.959 0 0 1-2.956-2.956V13.071a2.96 2.96 0 0 1 2.956-2.955h26.507a2.957 2.957 0 0 1 2.955 2.955V25.88a2.956 2.956 0 0 1-2.955 2.956h.002zM6.255 12.061a1.01 1.01 0 0 0-1.009 1.009v12.809a1.01 1.01 0 0 0 1.009 1.009h26.507c.557 0 1.008-.452 1.008-1.009V13.07a1.01 1.01 0 0 0-1.008-1.009H6.255zM28.325 9.11h-7.839a.973.973 0 1 1 0-1.947h7.839a.973.973 0 1 1 0 1.947z"/><path d="M15.991 20.447H8.15a.974.974 0 0 1 0-1.948h7.841a.975.975 0 0 1 0 1.948zM15.991 24.815H8.15a.973.973 0 1 1 0-1.947h7.841a.974.974 0 1 1 0 1.947zM1.256 24.367a.973.973 0 0 1-.973-.974v-7.84a.973.973 0 1 1 1.947 0v7.84c0 .54-.437.974-.974.974zM29.307 20.699c.606.211 1.23.294 1.868.232.206-.02.408-.059.615-.077.302-.024.491.19.402.481a6.012 6.012 0 0 1-1.51 2.518c-.084.084-.271.125-.392.101-.974-.197-1.828-.645-2.571-1.302-.058-.051-.114-.103-.205-.137.038.072.074.146.115.218.36.617.83 1.139 1.417 1.548.044.031.09.062.129.095.244.199.232.494-.041.641a5.836 5.836 0 0 1-2.778.709c-.161 0-.382-.148-.475-.294-.531-.822-.794-1.734-.851-2.71-.002-.052-.009-.104-.013-.154l-.071-.01c-.065.409-.156.817-.183 1.23-.02.356.037.718.062 1.075.005.062.017.123.021.183.022.315-.193.502-.496.408a5.996 5.996 0 0 1-2.495-1.5c-.087-.087-.13-.283-.104-.412.198-.975.65-1.826 1.308-2.571.045-.051.092-.102.137-.155.004-.004.004-.012.017-.047a4.334 4.334 0 0 0-1.315.97c-.194.205-.364.435-.537.659-.234.304-.53.288-.704-.051a6.382 6.382 0 0 1-.695-2.693c-.01-.236.082-.385.278-.507a5.829 5.829 0 0 1 2.736-.853c.052-.002.107-.007.159-.01.002-.025.007-.052.01-.076-.416-.064-.83-.156-1.248-.182-.357-.021-.718.021-1.074.069-.514.069-.696-.136-.527-.629a6.333 6.333 0 0 1 1.393-2.303.486.486 0 0 1 .514-.155c.947.215 1.654.592 2.728 1.441-.099-.167-.189-.339-.298-.499a4.85 4.85 0 0 0-1.266-1.289c-.4-.281-.375-.563.066-.783a6.378 6.378 0 0 1 2.608-.656.515.515 0 0 1 .509.273 5.817 5.817 0 0 1 .863 2.894l.057.012c.06-.275.154-.551.165-.826.017-.502-.016-1.008-.029-1.511 0-.045-.012-.092-.015-.137-.025-.328.193-.515.508-.417.943.298 1.777.79 2.478 1.49a.524.524 0 0 1 .113.409c-.215 1.055-.721 1.963-1.436 2.778.171-.102.346-.196.511-.307a4.827 4.827 0 0 0 1.27-1.251c.285-.403.567-.379.785.058.405.815.61 1.678.656 2.585.015.266-.086.427-.309.561a6.192 6.192 0 0 1-2.86.86v.006zm-1.618-1.21a1.474 1.474 0 0 0-1.471-1.478c-.804 0-1.466.651-1.473 1.453a1.476 1.476 0 0 0 1.459 1.492 1.48 1.48 0 0 0 1.486-1.468h-.001z"/></g></g></switch></svg>