<svg xmlns="http://www.w3.org/2000/svg" width="36" height="36"><switch><g><g fill="#C12A83"><path d="M21.704 32.966c.017.223.034.474.013.695-.06.555.07.962.275 1.261v.379h.363c.085.068.173.124.259.171l.212.116h2.129l.172-.069c1.496-.605 1.498-2.035 1.498-2.511a6097.28 6097.28 0 0 1-.014-19.177l.004-6.041v-.009c.002-.112.005-.25-.029-.405-.089-.407-.349-.696-.698-.812.149-.05.282-.131.391-.239.15-.149.332-.423.332-.876v-.088c.003-.918.007-1.865 0-2.809-.01-1.198-.92-2.116-2.116-2.135-.345-.006-.72-.006-1.18 0a1.71 1.71 0 0 0-.941.271h-.385v.382a1.67 1.67 0 0 0-.271.908 7.572 7.572 0 0 0-.004.474V2.5c.004.162.004.334-.004.507-.003.08-.028.114-.038.124-.009-.008-.029-.047-.031-.128-.005-.154-.005-.312-.005-.478v-.058c.002-.173 0-.347-.004-.519a1.614 1.614 0 0 0-.264-.868V.776L21.077.76a1.534 1.534 0 0 0-.979-.34C18.37.409 16.973.41 15.703.421c-.966.008-1.787.69-1.996 1.655-.01.043-.018.086-.024.126h-3.084c-.215 0-.53.024-.797.215l-.107.077h-.022v.024l-.073.098c-.199.264-.221.577-.221.792v13.356c0 .364.101.655.288.858v.065h.064c.2.18.484.278.837.28.292.004.583.001.875 0H12.23c.07 0 .112.017.13.024v.011a.309.309 0 0 1-.138.024c-.222.002-.443 0-.665 0h-.997c-.337.004-.611.098-.812.266h-.084v.082c-.186.201-.287.484-.287.832l-.002 6.711c0 2.238 0 4.474.002 6.711 0 .348.099.628.282.826v.051h.05c.2.184.48.286.83.286.785.003 1.569.003 2.353.002h.782c.139.833.667 1.428 1.552 1.735l.15.052h5.076l.182-.08c.163-.07.309-.158.434-.26l.31-.017v-.319c.207-.308.299-.691.266-1.13a6.834 6.834 0 0 1 0-.797c.003-.065.029-.105.04-.111.007.006.024.034.029.094l-.009.006zm-9.449-17.17h-.703l.005-11.409h2.065v11.836c-.319-.237-.763-.425-1.367-.427zm-.709 15.824l.003-11.421c.314.005.638.008.968-.017a2.07 2.07 0 0 0 1.104-.389V31.62h-2.075zm11.904.02c-.502-.785-1.474-1.116-2.418-.825a2.208 2.208 0 0 0-1.555 2.042c-.006.191-.008.376-.006.567h-3.504a1 1 0 0 1-.144-.009 1.154 1.154 0 0 1-.008-.154V2.732c0-.062.003-.11.006-.144.039-.005.089-.008.153-.008h3.495c0 .07 0 .138.003.201l.003.166c.004.198.007.421.063.654a2.17 2.17 0 0 0 2.386 1.679c1.075-.123 1.915-1.054 1.955-2.167.004-.173.006-.347.006-.533h.345c.095 0 .162.005.208.012.004.043.009.105.009.189v1.307c0 .451 0 .903.002 1.354.003.633.33.996.722 1.125-.387.122-.649.437-.707.879a2.048 2.048 0 0 0-.017.343V33.216c0 .069.002.143-.003.194-.17.008-.347.01-.546.008 0-.165-.005-.342-.035-.517-.073-.428-.167-.876-.415-1.264h.002z"/><path d="M16.576 6.162v23.885h6.983V6.162h-6.983zm5.091 1.892v20.102h-3.201V8.054h3.201z"/></g></g></switch></svg>