<svg xmlns="http://www.w3.org/2000/svg" width="36" height="36"><switch><g><path fill="#C12A83" d="M31.138 27.097H4.862a2.848 2.848 0 0 1-2.845-2.845V8.371a2.848 2.848 0 0 1 2.845-2.845h26.275a2.847 2.847 0 0 1 2.845 2.845v15.881a2.848 2.848 0 0 1-2.844 2.845zM4.862 7.258c-.614 0-1.113.499-1.113 1.113v15.881c0 .613.499 1.113 1.113 1.113h26.275c.613 0 1.113-.5 1.113-1.113V8.371c0-.614-.5-1.113-1.113-1.113H4.862z"/><path fill="#C12A83" d="M31.138 27.097H4.862a2.848 2.848 0 0 1-2.845-2.845V8.371a2.848 2.848 0 0 1 2.845-2.845h26.275a2.847 2.847 0 0 1 2.845 2.845v15.881a2.848 2.848 0 0 1-2.844 2.845zM4.862 7.258c-.614 0-1.113.499-1.113 1.113v15.881c0 .613.499 1.113 1.113 1.113h26.275c.613 0 1.113-.5 1.113-1.113V8.371c0-.614-.5-1.113-1.113-1.113H4.862z"/><path fill="#C12A83" d="M26.458 22.706H4.533c-1.387 0-2.517-1.08-2.517-2.408V7.934c0-1.327 1.128-2.407 2.517-2.407h21.923c1.388 0 2.518 1.079 2.518 2.407v12.364c0 1.327-1.128 2.408-2.518 2.408h.002zM4.533 7.258c-.434 0-.786.303-.786.676v12.364c0 .373.352.676.786.676h21.923c.434 0 .785-.303.785-.676V7.934c0-.373-.352-.676-.785-.676H4.533z"/><g fill="#C12A83"><path d="M4.212 6.392h17.659c.735 0 1.33.476 1.33 1.061v8.509c0 .587-.595 1.06-1.33 1.06H4.212c-.735 0-1.331-.475-1.331-1.06v-8.51c0-.587.596-1.06 1.331-1.06z"/><path d="M21.871 17.485H4.212c-.988 0-1.793-.683-1.793-1.524V7.452c0-.84.805-1.525 1.793-1.525h17.659c.988 0 1.794.684 1.794 1.525v8.509c0 .84-.806 1.524-1.794 1.524zM4.212 6.856c-.47 0-.866.273-.866.597v8.509c0 .324.396.598.866.598h17.659c.47 0 .865-.273.865-.598V7.453c0-.323-.396-.597-.865-.597H4.212z"/></g><path fill="#C12A83" d="M35.348 30.474H.652a.866.866 0 0 1 0-1.732h34.696a.867.867 0 0 1 0 1.732z"/></g></switch></svg>