<svg xmlns="http://www.w3.org/2000/svg" width="36" height="36"><switch><g><path fill="#C12A83" d="M31.242 21.27c.003-.811.005-1.622.005-2.433 0-1.568-1.225-2.95-2.787-3.145a3.39 3.39 0 0 0-1.892.305c-.447-.801-1.125-1.377-1.937-1.638-.794-.255-1.653-.19-2.451.178-.493-.918-1.232-1.492-2.204-1.716 2.022-1.965 2.731-4.309 2.103-6.968-.646-2.737-2.407-4.555-5.236-5.4a9.982 9.982 0 0 0-.81-.193c-.12-.025-.24-.05-.359-.077L14.047.175l-.05.018c-.025.008-.049.019-.074.028-.017.007-.034.016-.047.019-1.843.246-3.401 1.063-4.631 2.427-1.531 1.7-2.164 3.953-1.737 6.182.438 2.282 1.909 4.194 4.037 5.247.127.063.131.075.129.2-.011 1.099-.01 2.214-.007 3.292v.605a36.176 36.176 0 0 1-1.44-1.35 3.25 3.25 0 0 0-2.432-.957 3.18 3.18 0 0 0-2.305 1.122c-.913 1.082-.983 2.612-.186 3.996a67.92 67.92 0 0 1 1.877 3.498c.467.928.932 1.876 1.38 2.795a204.335 204.335 0 0 0 1.912 3.839 12.198 12.198 0 0 0 2.379 3.192c1.045 1.008 2.202 1.497 3.535 1.497h.085a275.75 275.75 0 0 1 4.629-.018c.973.002 1.946.004 2.919 0 .31 0 .635-.07.913-.195a11.83 11.83 0 0 0 3.305-2.217c2.033-1.924 3.048-4.246 3.014-6.906-.022-1.738-.017-3.508-.013-5.22h.003zm-13.123-9.621V7.185c0-1.78-1.405-3.181-3.196-3.19h-.016c-1.771 0-3.222 1.415-3.237 3.162-.01 1.136-.006 2.291-.004 3.408l.001 1.165a5.128 5.128 0 0 1-2.092-5.227c.478-2.455 2.697-4.226 5.288-4.226h.047c2.559.021 4.75 1.843 5.209 4.333.398 2.155-.673 4.096-2 5.042v-.003zm-4.925 10.22c.312-.149.66-.483.56-1.218a1.442 1.442 0 0 1-.009-.196v-1.571V7.363c0-.688.307-1.111.909-1.256.342-.082.692-.005.965.209.268.211.422.527.424.871.003 1.442.001 2.888.001 4.331v7.84c0 .419.188.787.501.988a.985.985 0 0 0 .965.052c.279-.129.612-.407.611-.999 0-.577.001-1.155.006-1.733.003-.551.006-1.1.006-1.65 0-.512.192-.847.604-1.053.418-.209.813-.183 1.205.082.323.217.479.52.477.929v4.821c0 .568.295.998.769 1.123.318.083.644.021.895-.169.259-.198.41-.513.412-.865l.008-.735c.009-.881.019-1.792.004-2.691a1.097 1.097 0 0 1 .496-.971c.33-.216.767-.255 1.109-.1.46.21.684.547.685 1.028.002 1.606.003 3.212 0 4.819 0 .521.202.883.604 1.074.319.152.685.136.977-.047.307-.19.49-.529.495-.907.006-.544.008-1.089.009-1.633.002-.584.003-1.166.011-1.75.006-.396.14-.733.377-.947.225-.204.53-.293.886-.262a1.107 1.107 0 0 1 1.02 1.102c0 .698.004 1.399.005 2.098.007 1.935.013 3.933-.011 5.898-.024 1.974-.847 3.664-2.515 5.167-.214.193-.452.376-.682.554l-.18.14c-.965.755-1.948 1.081-3.092 1.024a57.557 57.557 0 0 0-2.789-.06c-1.012 0-2.02.019-3.012.036l-.475.009c-.768.017-1.401-.238-2.001-.789-.832-.762-1.459-1.714-1.964-2.545-.917-1.509-1.681-3.139-2.419-4.715-.241-.513-.479-1.024-.725-1.534-.687-1.421-1.456-2.827-2.199-4.187l-.013-.023c-.223-.41-.508-1.174.104-1.688.473-.396 1.097-.373 1.521.059a538.427 538.427 0 0 1 3.113 3.207l.05.052c.509.529.991.458 1.308.307l-.006-.005z"/></g></switch></svg>